<svg id="App_Icon_Kit_A" data-name="App Icon Kit A" xmlns="http://www.w3.org/2000/svg" xmlns:xlink="http://www.w3.org/1999/xlink" viewBox="0 0 1024 1024"><defs><style>.cls-1{fill:url(#linear-gradient);}.cls-2{fill:url(#linear-gradient-2);}</style><linearGradient id="linear-gradient" x1="68.08" y1="955.92" x2="955.92" y2="68.08" gradientUnits="userSpaceOnUse"><stop offset="0" stop-color="#2a91ff"/><stop offset="1" stop-color="#d8aaff"/></linearGradient><linearGradient id="linear-gradient-2" x1="0" y1="1024" x2="1024" y2="0" xlink:href="#linear-gradient"/><symbol id="Icon" data-name="Icon" viewBox="0 0 1024 1024"><path id="App_Icon_Placeholder" data-name="App Icon Placeholder" class="cls-1" d="M357,0H667C769.8,0,821.18,0,876.52,17.49a217.47,217.47,0,0,1,130,130C1024,202.83,1024,254.22,1024,357V667c0,102.8,0,154.19-17.5,209.53a217.43,217.43,0,0,1-130,130C821.18,1024,769.8,1024,667,1024H357c-102.79,0-154.17,0-209.51-17.5a217.43,217.43,0,0,1-130-130C0,821.18,0,769.79,0,667V357C0,254.22,0,202.83,17.5,147.48a217.47,217.47,0,0,1,130-130C202.82,0,254.2,0,357,0h0"/><rect class="cls-2" width="1024" height="1024"/></symbol></defs><title>pagelogo1.3black</title><g id="App_Icon_and_Badge_-_Main" data-name="App Icon and Badge - Main"><g id="_1024" data-name="1024"><use id="_YOUR_ICON_HERE_" data-name="[YOUR ICON HERE]" width="1024" height="1024" xlink:href="#Icon"/></g><path d="M653.53,286a373.18,373.18,0,0,0,31.64-57c3.09-6.94-7.17-13-10.29-6a371.81,371.81,0,0,1-31.63,57c-4.3,6.37,6,12.33,10.28,6Z" transform="translate(0 0)"/><path d="M684.41,229.48c7.66,0,7.68-11.9,0-11.9s-7.67,11.9,0,11.9Z" transform="translate(0 0)"/><path d="M483.45,381.29a126,126,0,0,1,73.91,12.78c21.67,11.16,47.22,31.27,50.69,57,.43,3.21,4.51,4.9,7.32,4.16,3.45-.91,4.58-4.15,4.16-7.33-2-14.82-11-27.51-21.12-38.07a133.06,133.06,0,0,0-33.67-25.35c-24.78-13.12-53.44-18.77-81.29-15.12-3.22.42-5.92,2.44-6,5.95,0,2.9,2.77,6.38,6,6Z" transform="translate(0 0)"/><path d="M517.35,381.15c22.67.48,44.6,5.68,61.92,21A84.4,84.4,0,0,1,607,453.49c1.08,7.55,12.55,4.34,11.48-3.17a94.47,94.47,0,0,0-31.87-57.52c-19.6-16.86-43.8-23-69.24-23.56-7.67-.16-7.67,11.75,0,11.91Z" transform="translate(0 0)"/><path d="M547.33,384.43c37.43,5.26,57.46,40.3,66.48,73.67,2,7.39,13.48,4.25,11.48-3.16-10-37-33.39-76.18-74.8-82-7.49-1.05-10.73,10.42-3.16,11.48Z" transform="translate(0 0)"/><path d="M567.3,389.59c32.37,7.06,45.79,40.91,56.1,68.64,2.64,7.12,14.15,4,11.48-3.17-11.78-31.68-27.61-68.93-64.41-76.95-7.47-1.63-10.66,9.85-3.17,11.48Z" transform="translate(0 0)"/><path d="M747.71,941.34A122.15,122.15,0,0,1,762.54,956c2.11,2.47,6.32,2.16,8.49,0,2.44-2.44,2.11-6,0-8.48a123.05,123.05,0,0,0-14.84-14.66c-2.49-2.07-6.05-2.44-8.48,0-2.14,2.13-2.51,6.4,0,8.49Z" transform="translate(0 0)"/><path d="M504.41,743.6c7.66,0,7.68-11.91,0-11.91s-7.67,11.91,0,11.91Z" transform="translate(0 0)"/><path d="M742,737.84a150.91,150.91,0,0,1,2.65,27.89c0,4.83,5,7,9,5.14l101.45-47.36c8.2-3.82,16.44-7.55,24.58-11.48,6.52-3.15,12.88-6.88,17.44-12.63C906.16,688,906,672.78,905.19,659c-.46-7.61-12.37-7.67-11.91,0,.76,12.45,1.78,27.64-8.84,36.46-5.49,4.56-12.66,7.21-19.06,10.2l-23.55,11-94.21,44,9,5.14a169.44,169.44,0,0,0-3.08-31.05c-1.44-7.52-12.92-4.34-11.48,3.16Z" transform="translate(0 0)"/><path d="M892.06,672.34a33.6,33.6,0,0,0,6.36-7.79c2.57-4.3-1.72-10.41-6.72-8.74l-4.53,1.5c-2.95,1-5.18,4.15-4.15,7.32a6.09,6.09,0,0,0,7.32,4.16,20,20,0,0,0,8.9-4.54c2.4-2,2.23-6.38,0-8.42-2.55-2.34-5.85-2.14-8.42,0,.89-.74-.42.28-.54.35-.38.24-.79.43-1.19.65-.74.4,1.14-.3-.34.09-.52.14-1,.28-1.58.39l3.17,11.48,4.52-1.5-6.72-8.75c-.37.62-.77,1.2-1.16,1.81s-.41.58,0,.08l-.51.62a28.22,28.22,0,0,1-2.81,2.87,6,6,0,0,0,0,8.42,6.1,6.1,0,0,0,8.42,0Z" transform="translate(0 0)"/><path d="M773.81,748.4c10.23.25,19.88-2.75,29.24-6.62s18.69-8.07,27.87-12.47a587,587,0,0,0,54.14-29.67l-8.15-2.14c-1.22-2.51,1.34-3.67-2.43-2.22-1.13.44-2.3.81-3.46,1.18-2.62.83-5.27,1.55-7.93,2.23-5.26,1.34-10.57,2.48-15.81,3.89a236.4,236.4,0,0,0-29.32,10,243.35,243.35,0,0,0-53.53,30.52c-6,4.55-.15,14.88,6,10.28A253.15,253.15,0,0,1,815,726.65c14.63-6.8,32.28-10,44.64-20.79,5.78-5.05-2.67-13.44-8.42-8.42s-13.29,7.35-20.42,9.93q-11.93,4.32-23.41,9.75a253.07,253.07,0,0,0-43,25.94l6,10.28a233.21,233.21,0,0,1,61.93-33.65c11.11-4,22.47-6.62,33.88-9.52,8.38-2.13,27.08-6.12,20.94-18.68-1.38-2.84-5.56-3.73-8.14-2.13q-24.69,15.25-50.77,28-12.63,6.17-25.53,11.7c-9.25,4-18.73,7.65-28.94,7.4-7.67-.19-7.67,11.72,0,11.91Z" transform="translate(0 0)"/><path d="M772.21,949.46a41.44,41.44,0,0,0-1.36-6.11c-.91-3-4.21-5.16-7.33-4.15a6,6,0,0,0-4.15,7.32,41,41,0,0,1,1.36,6.1,6,6,0,0,0,2.73,3.56,6,6,0,0,0,8.15-2.13,7,7,0,0,0,.6-4.59Z" transform="translate(0 0)"/><path d="M725.25,923.48c4.55,2.13,7.93,5.58,11.93,8.54s7.86,5.44,11.19,9c5.26,5.59,13.67-2.84,8.42-8.42-3.64-3.88-8-6.81-12.31-9.91-4.49-3.24-8.14-7.09-13.22-9.47-6.9-3.23-13,7-6,10.28Z" transform="translate(0 0)"/><path d="M752.76,921.39c-4.54-3.27-8.89-6.75-13.1-10.42a6.1,6.1,0,0,0-8.42,0c-2.15,2.15-2.43,6.29,0,8.42q7.46,6.51,15.51,12.28c2.61,1.88,6.63.45,8.14-2.14,1.76-3,.48-6.26-2.13-8.14Z" transform="translate(0 0)"/><path d="M754.74,932.06c-1.53-3.15-4.4-5.1-7.07-7.2l-9.16-7.21c-2.52-2-6-2.46-8.42,0-2.06,2.07-2.54,6.42,0,8.42l8.24,6.49c2,1.57,5,3.18,6.13,5.51,1.4,2.89,5.52,3.67,8.14,2.13,3-1.72,3.55-5.24,2.14-8.14Z" transform="translate(0 0)"/><path d="M754.31,931.58a162.74,162.74,0,0,0-23.46-18.21c-6.5-4.09-12.49,6.21-6,10.28a146.09,146.09,0,0,1,21,16.35c5.65,5.17,14.09-3.23,8.42-8.42Z" transform="translate(0 0)"/><path d="M753.56,734l-.11-.47v3.17c-.1.49-.51.49-.05.06-1,.89-.13.18.08,0s.45-.42.68-.63c.54-.53-1.1.65.09,0a41.74,41.74,0,0,1,4.14-2c2.88-1.23,3.73-5.68,2.14-8.15-1.93-3-5.07-3.44-8.15-2.13-5.36,2.28-11.88,6.63-10.3,13.42a6,6,0,0,0,7.32,4.16,6.1,6.1,0,0,0,4.16-7.33Z" transform="translate(0 0)"/><path d="M491.53,379.24c19.73,0,39.74.46,58.5,6.93,7.26,2.51,10.37-9,3.16-11.48-19.73-6.81-40.91-7.4-61.66-7.36-7.66,0-7.67,11.92,0,11.91Z" transform="translate(0 0)"/><path d="M518.08,379.88c17.27-.62,33.47,5.78,49.87,10.24,7.4,2,10.56-9.47,3.17-11.48-17.45-4.75-34.67-11.33-53-10.66-7.64.28-7.67,12.18,0,11.9Z" transform="translate(0 0)"/><path d="M513.45,379.83q12.74.69,25.44,1.87c7.62.72,7.58-11.2,0-11.9q-12.71-1.2-25.44-1.87c-7.66-.41-7.64,11.5,0,11.9Z" transform="translate(0 0)"/><path d="M569.37,377.94a215.83,215.83,0,0,0-28.93-5.54c-7.6-.9-7.53,11,0,11.91a193,193,0,0,1,25.76,5.11c7.42,1.94,10.59-9.54,3.17-11.48Z" transform="translate(0 0)"/><path d="M574.86,378.9a142.32,142.32,0,0,0-29.5-7.48c-8.71-1.23-19.94-3.47-28.22.21-7,3.1-.94,13.36,6,10.28,2.84-1.26,9.21.07,12.35.31a121.18,121.18,0,0,1,12.17,1.55,141.69,141.69,0,0,1,24,6.61c7.2,2.66,10.31-8.84,3.17-11.48Z" transform="translate(0 0)"/><path d="M579.12,382.56c-18.11-11-39.1-14.8-60-15.69a259.63,259.63,0,0,0-32.53.25c-10.63.89-21.23,3-31.77,4.54-7.55,1.14-4.34,12.61,3.16,11.48,9.79-1.47,19.65-3.45,29.52-4.19a274.45,274.45,0,0,1,29.67-.25c19.49.67,39,3.91,55.94,14.15,6.57,4,12.56-6.32,6-10.29Z" transform="translate(0 0)"/><path d="M577.06,381.76c1.21-.18-1.27-.69-1.39-.73l-2.82-.92-5.64-1.84a6,6,0,0,0-3.16,11.48c5.23,1.71,10.59,4.31,16.17,3.49,3.19-.47,4.94-4.5,4.16-7.32-.94-3.42-4.13-4.63-7.32-4.16Z" transform="translate(0 0)"/><path d="M577.29,380.75c-1.74.06-3.9-1.2-5.52-1.86-2-.83-4-1.72-6-2.64-2.92-1.34-6.41-.83-8.14,2.13-1.5,2.57-.8,6.8,2.13,8.15s5.9,2.63,8.9,3.84c2.81,1.14,5.58,2.39,8.68,2.28,7.64-.26,7.68-12.17,0-11.9Z" transform="translate(0 0)"/><path d="M583.37,383.09c-5.85-4-12.52-6.35-19.3-8.26-7.26-2.05-14.14-3.62-21.69-2.36S538,385.21,545.55,384c5.65-.95,11.64,1.25,17,2.82a50.39,50.39,0,0,1,14.81,6.59c6.34,4.34,12.3-6,6-10.28Z" transform="translate(0 0)"/><path d="M755.6,735.33a160.31,160.31,0,0,0,24.1-7c7.1-2.68,4-14.19-3.17-11.48a160,160,0,0,1-24.1,7c-7.49,1.55-4.32,13,3.17,11.48Z" transform="translate(0 0)"/><path d="M758.08,734.36c5.85-3.45,12.47-5,18.77-7.39,7.09-2.7,4-14.22-3.16-11.48s-14.88,4.61-21.62,8.59-.61,14.19,6,10.28Z" transform="translate(0 0)"/><path d="M756.4,734.7a332.81,332.81,0,0,0,42.81-15.39c7-3,1-13.32-6-10.28a309,309,0,0,1-40,14.18c-7.37,2.08-4.24,13.57,3.16,11.49Z" transform="translate(0 0)"/></g><path d="M759.12,878.13c5.47,18.42,6.94,38,12.16,68-8.39-3.33-15-5.53-20.28-7.33a14.78,14.78,0,0,0-.86-9.83,11.65,11.65,0,0,0-3.21-5l-3.13-2.42a15.49,15.49,0,0,0-7.83-2.12l-4.12.56a15.4,15.4,0,0,0-6.55,3.71c-76.53-58.43-160.88-45.54-246.4-21.11-20.73,5.93-40.44,18.64-61.22,20.19-16.88,1.26-38.4-5-51.38-15.73-62.46-51.66-82.12-126.64-106.49-199.93C217,578.34,170,450.92,123.6,319.84,253.69,251,380.67,183.6,507.79,116.52c25.66-13.55,51.36-27.3,78.11-38.38,8.47-3.51,20.42,1.34,30.77,2.37q0,6.76.1,13.52c-91.7,49.3-183.28,98.81-275.14,147.79-47.49,25.33-95.37,49.92-143.28,74.45C173.19,329.14,175,344.84,190.14,365c39.75,52.88,44.33,50.92,110.18,33,60.1-16.33,122.79-30,184.53-30.82,36.7-.51,74.41,24.54,110.52,40.66,42.79,19.11,42.83,61,53.49,99.79C683,631.88,722.46,754.61,759.12,878.13Zm-87.53-78.61c1.75-64.14-138.57-90.82-260.35-28,22.68,5.55,33.7,11.12,44.14,10.21,21.48-1.89,43.34-12.69,63.81-10.11C570.81,778.14,621.76,790,671.59,799.52Zm-35-106.15c-4.52-10.73-6.12-24.91-14-31.65-58.38-49.64-153.79-51.38-236.37-6.07l-.27,15.09c20.49-2,41.44-1.84,61.37-6.29,55.86-12.45,109.09-13.93,157.9,23.06C612.78,693.26,626,691.6,636.6,693.37ZM479.73,541c42.39,4.57,82.95,26.22,127.53,41.51-26.57-78.22-169.67-102-255.11-41.27q1.22,7.11,2.41,14.23C396.36,549.92,439,536.61,479.73,541Z" transform="translate(0 0)"/><path d="M411.24,771.53c121.78-62.83,262.1-36.15,260.35,28-49.83-9.48-100.78-21.38-152.4-27.89-20.47-2.58-42.33,8.22-63.81,10.11C444.94,782.65,433.92,777.08,411.24,771.53Z" transform="translate(0 0)"/><path d="M622.56,661.72c7.92,6.74,9.52,20.92,14,31.65-10.61-1.77-23.82-.11-31.41-5.86-48.81-37-102-35.51-157.9-23.06-19.93,4.45-40.88,4.33-61.37,6.29l.27-15.09C468.77,610.34,564.18,612.08,622.56,661.72Z" transform="translate(0 0)"/><path d="M607.26,582.5c-44.58-15.29-85.14-36.94-127.53-41.51-40.73-4.38-83.37,8.93-125.17,14.47q-1.2-7.11-2.41-14.23C437.59,480.53,580.69,504.28,607.26,582.5Z" transform="translate(0 0)"/><path d="M685.33,221.86c-112,40.37-198.89,122.5-318.59,126.62L701.16,174c10.52,28,21.88,52.53,29,78.2,38.23,137.81,75,276,113.33,413.8,7.8,28,5.34,46.59-25.41,57.77-21.22,7.72-40.3,21.36-60.75,32.58L745,731.16c2.51-2.65,4-5.19,6.31-6.51,19.25-11.26,55.36-22.79,55-33.3-1.26-42.31-11.8-84.78-22.51-126.27-24.61-95.3-51.07-190.12-77.42-285C701.11,261.1,693,242.86,685.33,221.86Z" transform="translate(0 0)"/><path d="M837.86,711.92a165.66,165.66,0,0,0,41-21.33c6.17-4.42.23-14.75-6-10.28a154.54,154.54,0,0,1-38.16,20.13c-7.17,2.56-4.08,14.07,3.16,11.48Z" transform="translate(0 0)"/><path d="M842,693.1l21-10.78,10.5-5.39c3.39-1.74,7.39-3.17,10.49-5.39l1.75-.9q-3.45-1-1.25,1.59c.41,1.49,1.18,4.33,2,5.5l.48,1.79c1.64-1.83,1.39-2.13-.77-.92-1.72.16-3.83,1.42-5.43,2l-21.73,8.08,5.79,9.95a55.39,55.39,0,0,1,15-10.53l-6-10.28a151.5,151.5,0,0,1-20.28,9l4.58,10.88,11.15-5c6.09-2.73,1.71-13.35-4.59-10.88a116.73,116.73,0,0,1-22,6.25l3.16,11.48c8.22-2.37,16.36-5,24.37-8,6.56-2.44,11.88-5,14.73-11.75,2.17-5.15-4.65-8.9-8.74-6.72L832,696.56c-6,3.2-1.86,12.61,4.59,10.88a126.23,126.23,0,0,0,42.88-20.71c6.07-4.53.14-14.87-6-10.28a117.4,117.4,0,0,1-40,19.51L838,706.84l44.21-23.48-8.75-6.73c-1.37,3.26-10.41,4.91-13.31,5.91-5.78,2-11.6,3.82-17.47,5.52-7.47,2.16-4.28,12.83,3.16,11.48a115.88,115.88,0,0,0,22-6.25l-4.59-10.88-11.14,5c-6.11,2.74-1.77,13.14,4.58,10.88a171.89,171.89,0,0,0,23.13-10.17c6.82-3.63.82-13.6-6-10.28a65.77,65.77,0,0,0-17.43,12.39c-4,4,.05,12.09,5.8,9.95,10.18-3.79,21-6.93,30.85-11.55s4.89-17.61.5-24.69c-6.52-10.54-18.26-1.31-26.09,2.71L836,682.82c-6.82,3.5-.81,13.78,6,10.28Z" transform="translate(0 0)"/><path d="M886.76,681.25c7.67,0,7.68-11.91,0-11.91s-7.67,11.91,0,11.91Z" transform="translate(0 0)"/><path d="M679.86,195c-13.5,22.85-26,47-42.41,68a122.54,122.54,0,0,1-26.88,25.9c-11.31,7.76-23.74,13.67-36.1,19.55-5.46,2.6-2.63,11.17,3,11.09,51.72-.71,101.25-30,126.65-75.08,3.77-6.69-6.51-12.69-10.28-6C670.49,279.9,625.1,307,577.48,307.62l3,11.09c12.62-6,25.33-12,36.83-20.06a134,134,0,0,0,28.56-27.25C663,249.69,676.1,224.79,690.14,201c3.9-6.61-6.38-12.6-10.28-6Z" transform="translate(0 0)"/><path d="M676.3,221.94a117.94,117.94,0,0,1-61.21,71.43l6,10.28C633.8,296.78,646.89,289.5,656,278c10.16-12.72,16.49-29,23.86-43.4L669,233.2c1.87,7.47-2.09,14.45-5.92,20.6S655.37,266,653.23,273c-1.71,5.61,5.92,10.18,9.95,5.8a115,115,0,0,0,25.38-44.18L676.86,233a33.35,33.35,0,0,1-2.38,15.27c-2.57,6.44,7.47,10.12,10.88,4.58l4-6.58-11.09-3a9.71,9.71,0,0,1-2,5c-4.38,6.48,5.76,11.93,10.28,6A28.9,28.9,0,0,0,692.29,239c.61-6.43-8.06-7.32-11.1-3l-16.36,23.25c-3.91,5.56,4.76,12.07,9.35,7.21a107.51,107.51,0,0,0,17.13-23.76c3.58-6.77-6.69-12.8-10.28-6a96.37,96.37,0,0,1-15.26,21.36l9.35,7.21L691.47,242l-11.09-3a17.82,17.82,0,0,1-4,9.34l10.28,6a21.68,21.68,0,0,0,3.6-11c.43-6.15-8.18-7.75-11.1-3l-4,6.58L686,251.46A41.43,41.43,0,0,0,688.77,233c-.48-6.57-9.65-8.22-11.7-1.58a101.14,101.14,0,0,1-22.31,38.93l10,5.79c2.49-8.19,8.22-14.66,12-22.2s5.84-15.56,3.75-23.93c-1.21-4.8-8.54-6-10.89-1.42L659,249.44c-3.46,6.79-6.67,13.94-11.29,20.05-8.25,10.91-20.82,17.51-32.6,23.88-6.79,3.68-.81,13.61,6,10.28a129.68,129.68,0,0,0,66.68-78.54c2.23-7.35-9.26-10.49-11.48-3.17Z" transform="translate(0 0)"/><path d="M760.66,760.48Q779.35,749.1,796.9,736c6.08-4.53.15-14.87-6-10.28q-17.55,13.05-36.24,24.44c-6.53,4-.56,14.28,6,10.28Z" transform="translate(0 0)"/><path d="M884.24,701c7.66,0,7.67-11.91,0-11.91s-7.67,11.91,0,11.91Z" transform="translate(0 0)"/><path d="M886.71,669.92a90,90,0,0,1,11.52-4.47c7.29-2.29,4.18-13.79-3.16-11.48a110.82,110.82,0,0,0-14.37,5.67c-2.91,1.37-3.66,5.54-2.13,8.14,1.73,3,5.22,3.52,8.14,2.14Z" transform="translate(0 0)"/><path d="M506.58,515.43c3.33,4.3,4.31,9.27,5.22,14.52,1,5.84,2.07,11.67,3.34,17.46a325.42,325.42,0,0,0,10.1,35.75c2.48,7.2,14,4.11,11.48-3.16a326.74,326.74,0,0,1-10.5-37.62c-2.3-10.76-2.39-23.93-9.36-33-2-2.56-5.09-3.87-8.14-2.13-2.52,1.43-4.1,5.6-2.14,8.14Z" transform="translate(0 0)"/><path d="M618.2,306.45c6.57-5.77,14.82-9.15,21.68-14.53S651.58,279,657,272.15a222,222,0,0,1,38.4-37.75l-9.95-2.62a52.92,52.92,0,0,0,4.69,14.38c2,4.16,8.13,3.58,10.28,0a13,13,0,0,0,2-7.51c-.2-7.65-12.1-7.68-11.91,0l-.37,1.5h10.28A42.4,42.4,0,0,1,697,228.61c-.82-5-6.84-5-10-2.63a223.79,223.79,0,0,0-38.4,37.75c-5.42,6.83-10.12,14.58-17.24,19.8s-15,8.7-21.57,14.5c-5.77,5.07,2.68,13.46,8.41,8.42Z" transform="translate(0 0)"/></svg>