<svg width="170" height="119" viewBox="0 0 170 119" fill="none" xmlns="http://www.w3.org/2000/svg">
<path d="M66.1665 40.1043L105.258 23.5179C105.986 23.2101 106.502 22.4813 106.502 21.6394V2.04985C106.502 0.92524 105.591 0.00796211 104.46 0.00796211C103.681 0.00796211 106.345 -0.903032 64.4953 16.764C63.6472 17.0656 63.0817 17.9765 63.1571 18.743L63.2074 38.2697C63.2074 39.3943 64.1184 40.3116 65.2493 40.3116C65.7896 40.3116 66.0786 40.1169 66.198 40.0792" fill="#0066F5"/>
<path d="M66.1665 67.654L105.258 51.0677C105.986 50.7598 106.502 50.031 106.502 49.1891V29.5996C106.502 28.475 105.591 27.5577 104.46 27.5577C103.681 27.5577 106.345 26.6467 64.4953 44.3137C63.6472 44.6153 63.0817 45.5263 63.1571 46.2928L63.2074 65.8195C63.2074 66.9441 64.1184 67.8614 65.2493 67.8614C65.7896 67.8614 66.0786 67.6666 66.198 67.6289" fill="#0066F5"/>
<path d="M15.9177 101.116C15.6287 101.116 15.3774 100.915 15.3146 100.632C15.1072 99.6959 14.7114 99.0299 14.1208 98.6153C13.4297 98.1378 12.3428 97.899 10.8664 97.899C9.64754 97.899 8.71141 98.0561 8.05173 98.3703C7.39204 98.6844 7.06534 99.2059 7.06534 99.9284C7.06534 100.657 7.39204 101.21 8.05173 101.587C8.71141 101.964 9.6978 102.341 11.0109 102.699C12.3931 103.095 13.7062 103.453 14.9564 103.761C16.2067 104.075 17.3062 104.414 18.2612 104.779C19.5428 105.306 20.5292 106.023 21.2203 106.934C21.9114 107.845 22.257 109.089 22.257 110.672C22.257 113.216 21.3585 115.195 19.568 116.615C17.7774 118.035 15.1386 118.745 11.6517 118.745C7.90094 118.745 5.03602 117.953 3.0444 116.37C1.24126 114.932 0.229737 113.128 0.00355896 110.961C-0.0152892 110.785 0.0412553 110.615 0.160627 110.483C0.279999 110.351 0.44335 110.276 0.619266 110.276H5.99728C6.30513 110.276 6.569 110.502 6.6067 110.81C6.72607 111.708 7.15958 112.425 7.90094 112.946C8.78681 113.574 10.0245 113.889 11.6015 113.889C12.7512 113.889 13.7564 113.7 14.6109 113.317C15.4653 112.94 15.8926 112.286 15.8926 111.363C15.8926 110.502 15.503 109.893 14.7303 109.528C13.9575 109.164 13.0465 108.85 11.991 108.586C9.94911 108.09 8.30932 107.644 7.05906 107.248C5.80879 106.852 4.7533 106.374 3.89885 105.809C2.74911 105.08 1.9512 104.257 1.50513 103.334C1.05906 102.41 0.839161 101.405 0.839161 100.312C0.839161 99.2875 1.02136 98.3326 1.37948 97.4404C1.74387 96.5483 2.33445 95.7818 3.15749 95.1347C3.98052 94.4938 5.0423 93.9849 6.33654 93.6268C7.63707 93.2624 9.20775 93.0802 11.0486 93.0802C14.5669 93.0802 17.1554 93.7587 18.8203 95.1095C20.3344 96.3409 21.2266 98.1064 21.4968 100.406C21.5156 100.582 21.4653 100.758 21.346 100.89C21.2266 101.022 21.0632 101.097 20.8873 101.097H15.9177V101.116Z" fill="#0066F5"/>
<path fill-rule="evenodd" clip-rule="evenodd" d="M24.2672 117.922C24.3802 118.041 24.5373 118.104 24.7007 118.104L29.6389 118.117C29.9719 118.117 30.2483 117.847 30.2546 117.507L30.2923 115.145C31.7687 117.551 34.0242 118.758 37.0462 118.758C38.5604 118.758 39.9614 118.462 41.2619 117.866C42.5624 117.269 43.6682 116.414 44.5918 115.29C45.509 114.171 46.2316 112.802 46.7593 111.181C47.2871 109.566 47.5509 107.732 47.5509 105.683C47.5509 103.836 47.331 102.14 46.885 100.607C46.4389 99.0676 45.7918 97.742 44.9373 96.6174C44.0829 95.4928 43.0399 94.6258 41.8085 94.0163C40.5771 93.4069 39.1698 93.0991 37.5928 93.0991C34.6022 93.0991 32.2022 94.3682 30.3928 96.9127V85.4467C30.3928 85.2833 30.3237 85.12 30.2106 85.0069C30.0975 84.8875 29.9405 84.8247 29.7771 84.8247H24.7007C24.3614 84.8247 24.085 85.1011 24.085 85.4404V117.482C24.085 117.646 24.1541 117.809 24.2672 117.922ZM39.5153 111.438C38.4975 112.808 37.1782 113.493 35.5698 113.493C34.0242 113.493 32.7363 112.852 31.6933 111.564C30.6567 110.276 30.1415 108.592 30.1415 106.513C30.1415 101.235 31.9384 98.5902 35.5195 98.5902C39.2012 98.5902 41.042 101.097 41.042 106.117C41.042 108.291 40.5331 110.069 39.5153 111.438Z" fill="#0066F5"/>
<path fill-rule="evenodd" clip-rule="evenodd" d="M50.1583 90.7242C50.2148 90.7807 50.2965 90.8121 50.3782 90.8121V90.8184H56.1708C56.3405 90.8184 56.4787 90.6802 56.4787 90.5106V85.4467C56.4787 85.1011 56.2023 84.8247 55.863 84.8247H50.3782C50.2085 84.8247 50.0703 84.9629 50.0703 85.1326V90.5043C50.0703 90.586 50.1017 90.6676 50.1583 90.7242ZM50.2525 117.922C50.3656 118.041 50.5227 118.104 50.686 118.104H55.863C56.2022 118.104 56.4787 117.828 56.4787 117.489V94.3556C56.4787 94.1922 56.4096 94.0289 56.2965 93.9158C56.1834 93.7964 56.0263 93.7336 55.863 93.7336H50.686C50.3468 93.7336 50.0703 94.01 50.0703 94.3493V117.482C50.0703 117.646 50.1394 117.809 50.2525 117.922Z" fill="#0066F5"/>
<path d="M79.8822 118.104C79.6057 118.104 79.3607 117.916 79.2853 117.646L75.5659 103.937L71.8403 117.646C71.7649 117.916 71.5261 118.104 71.2434 118.104H65.6204C65.3439 118.104 65.1052 117.922 65.0298 117.652L58.4769 94.5252C58.4267 94.3368 58.4644 94.1357 58.5774 93.9849C58.6968 93.8279 58.879 93.7399 59.0675 93.7399H64.5272C64.8099 93.7399 65.0549 93.9347 65.124 94.2048L68.9502 109.39L72.1984 94.23C72.2612 93.9472 72.5125 93.7399 72.8015 93.7399H78.3303C78.613 93.7399 78.8644 93.9347 78.9272 94.2111L82.6089 109.39L86.1963 94.2174C86.2591 93.9409 86.5104 93.7399 86.7932 93.7399H92.0958C92.2905 93.7399 92.4727 93.8341 92.5858 93.9849C92.6989 94.1357 92.7366 94.343 92.6863 94.5252L86.0832 117.658C86.0078 117.922 85.7628 118.104 85.4926 118.104H79.8822Z" fill="#001835"/>
<path fill-rule="evenodd" clip-rule="evenodd" d="M107.683 117.627C107.752 117.91 107.997 118.104 108.286 118.104V118.098H113.777V102.693C113.777 101.179 113.601 99.8153 113.237 98.609C112.872 97.4027 112.288 96.3975 111.484 95.587C110.68 94.7765 109.612 94.1545 108.28 93.7273C106.948 93.3001 105.327 93.0865 103.423 93.0865C101.482 93.0865 99.8421 93.2938 98.4913 93.7085C97.1405 94.1231 96.0473 94.7074 95.2117 95.4676C94.3761 96.2278 93.7667 97.1388 93.3898 98.1943C93.1322 98.9106 92.906 99.9472 92.8117 100.99C92.7929 101.16 92.8494 101.336 92.9688 101.461C93.0819 101.587 93.2452 101.662 93.4212 101.662H98.2274C98.5102 101.662 98.7552 101.468 98.8243 101.191C99.0379 100.293 99.4714 99.5137 99.9363 99.0362C100.577 98.3765 101.633 98.0436 103.115 98.0436C104.366 98.0436 105.358 98.2635 106.1 98.7095C106.841 99.1556 107.212 99.7776 107.212 100.569C107.212 101.424 106.935 102.046 106.376 102.423C105.817 102.806 104.73 103.107 103.122 103.34C101.513 103.566 100.024 103.824 98.661 104.106C97.2976 104.389 96.1227 104.823 95.1363 105.419C94.15 106.01 93.3772 106.827 92.818 107.87C92.2589 108.906 91.9824 110.301 91.9824 112.054C91.9824 114.039 92.6295 115.648 93.9301 116.885C95.2243 118.123 97.2725 118.745 100.068 118.745C101.714 118.745 103.159 118.488 104.41 117.979C105.66 117.47 106.665 116.785 107.419 115.924C107.457 116.408 107.551 117.061 107.683 117.627ZM105.936 106.959C106.565 106.764 107.042 106.5 107.369 106.167L107.312 108.844C107.312 109.572 107.155 110.257 106.841 110.898C106.527 111.539 106.119 112.104 105.61 112.582C105.101 113.059 104.491 113.436 103.788 113.719C103.078 114.002 102.318 114.14 101.494 114.14C99.4274 114.14 98.3908 113.229 98.3908 111.413C98.3908 110.358 98.7363 109.547 99.4274 108.988C100.119 108.423 101.381 107.964 103.222 107.6C104.41 107.373 105.314 107.16 105.936 106.959Z" fill="#001835"/>
<path d="M117.208 118.104C117.044 118.104 116.887 118.041 116.774 117.922C116.661 117.809 116.592 117.646 116.592 117.482V85.4404C116.592 85.1011 116.868 84.8247 117.208 84.8247H122.384C122.548 84.8247 122.705 84.8875 122.818 85.0069C122.931 85.12 123 85.2833 123 85.4467V117.489C123 117.828 122.724 118.104 122.384 118.104H117.208Z" fill="#001835"/>
<path d="M126.331 118.104C126.167 118.104 126.01 118.041 125.897 117.922C125.784 117.809 125.715 117.646 125.715 117.482V85.4404C125.715 85.1011 125.991 84.8247 126.331 84.8247H131.508C131.671 84.8247 131.828 84.8875 131.941 85.0069C132.054 85.12 132.123 85.2833 132.123 85.4467V117.489C132.123 117.828 131.847 118.104 131.508 118.104H126.331Z" fill="#001835"/>
<path fill-rule="evenodd" clip-rule="evenodd" d="M142.307 112.004C141.339 110.917 140.805 109.447 140.705 107.6H156.814C156.977 107.6 157.14 107.53 157.254 107.411C157.367 107.292 157.429 107.128 157.429 106.965C157.354 102.423 156.393 99.0048 154.552 96.6991C152.629 94.2928 149.796 93.0865 146.045 93.0865C144.173 93.0865 142.508 93.3755 141.063 93.9535C139.618 94.5315 138.393 95.3671 137.388 96.454C136.382 97.5472 135.622 98.8477 135.094 100.368C134.567 101.889 134.303 103.591 134.303 105.47C134.303 114.316 138.343 118.739 146.435 118.739C149.036 118.739 151.272 118.06 153.145 116.71C154.803 115.51 156.022 113.857 156.807 111.752C156.883 111.558 156.851 111.35 156.738 111.181C156.619 111.017 156.43 110.917 156.229 110.917H150.921C150.669 110.917 150.443 111.074 150.349 111.306C150.079 111.979 149.601 112.519 148.923 112.921C148.112 113.399 147.182 113.637 146.133 113.637C144.55 113.637 143.274 113.091 142.307 112.004ZM150.343 101.191C150.625 101.863 150.782 102.649 150.814 103.541V103.547H140.9C141.032 101.863 141.566 100.55 142.502 99.608C143.438 98.6655 144.55 98.1943 145.832 98.1943C146.454 98.1943 147.063 98.3011 147.654 98.5148C148.244 98.7347 148.772 99.0614 149.23 99.5074C149.695 99.9535 150.06 100.513 150.343 101.191Z" fill="#001835"/>
<path d="M169.022 98.2886C169.361 98.2886 169.637 98.0121 169.637 97.6666V94.3493C169.637 94.01 169.361 93.7273 169.022 93.7273H165.956V87.7587C165.956 87.4195 165.679 87.1367 165.34 87.1367H160.257C159.918 87.1367 159.642 87.4132 159.642 87.7587V108.932C159.642 110.251 159.818 111.507 160.182 112.695C160.54 113.882 161.124 114.925 161.929 115.817C162.739 116.71 163.769 117.419 165.013 117.947C166.264 118.475 167.784 118.739 169.562 118.739H169.637V113.732C169.637 113.417 169.399 113.147 169.085 113.116C168.06 113.009 167.307 112.594 166.81 111.884C166.238 111.043 165.956 109.849 165.956 108.291V98.2886H169.022Z" fill="#001835"/>
</svg>
