<svg width="300" height="60" viewBox="0 0 300 60" fill="none" xmlns="http://www.w3.org/2000/svg">
<path fill-rule="evenodd" clip-rule="evenodd" d="M16.6771 35.338C16.1231 38.3832 17.6754 39.3603 20.3709 39.3603C22.2812 39.3603 24.4229 38.6327 24.8547 36.7154C25.3711 34.4347 21.9913 34.0002 18.7151 32.9453C15.4763 31.8965 12.2027 30.2287 13.2752 25.4796C14.5542 19.8305 20.405 17.6161 24.9742 17.6161C29.8155 17.6161 34.1281 20.1202 32.8437 25.959H26.5024C27.1366 23.6019 25.2289 22.838 23.2862 22.838C21.9199 22.838 20.1016 23.3423 19.7174 25.0476C19.2664 27.0399 22.6982 27.4034 26.004 28.4562C29.2815 29.5045 32.4321 31.2447 31.3777 35.9201C29.8963 42.4759 24.1691 44.5775 18.818 44.5775C13.2244 44.5775 8.87035 41.9702 10.3317 35.338H16.6771Z" fill="#0059A2"/>
<path fill-rule="evenodd" clip-rule="evenodd" d="M60.554 18.162H66.894L61.052 44.033H54.706L60.554 18.162Z" fill="#0059A2"/>
<path fill-rule="evenodd" clip-rule="evenodd" d="M39.1584 38.6328H44.2407C46.2528 38.6328 47.8185 37.871 48.3049 35.7384C48.8207 33.453 47.4924 32.6952 45.5799 32.6952H40.5009L39.1584 38.6328ZM41.4845 28.3457H46.3924C47.4836 28.3457 49.1234 27.7281 49.5383 25.882C49.9681 23.9976 48.8427 23.3792 47.515 23.3792H42.6049L41.4845 28.3457ZM37.4416 18.162H48.826C53.0384 18.0923 57.3798 19.2489 56.1609 24.6481C55.6364 26.967 53.9157 28.854 51.7775 29.8653C54.1905 30.6627 55.2515 33.0587 54.5887 35.9906C53.1975 42.1534 48.5113 44.0331 43.2932 44.0331H31.6003L37.4416 18.162Z" fill="#0059A2"/>
<path fill-rule="evenodd" clip-rule="evenodd" d="M75.7525 7.76975C72.247 -1.57295 52.1872 -2.63991 30.9569 5.3837C15.8159 11.1114 4.16763 19.9157 0 27.8865C5.75998 21.8457 15.0675 15.9116 26.2942 11.6659C47.5279 3.63413 67.5855 4.70451 71.0917 14.0494C72.1014 16.7296 71.6316 19.8004 69.9556 23.0086C75.0868 17.6283 77.4062 12.1717 75.7525 7.76975Z" fill="#E7252F"/>
<path fill-rule="evenodd" clip-rule="evenodd" d="M81.1548 37.502L83.718 37.2808C83.641 38.2944 83.7577 39.1259 84.068 39.7755C84.3783 40.4251 84.9537 40.9503 85.7942 41.3511C86.6348 41.7519 87.6289 41.9523 88.7765 41.9523C89.7958 41.9523 90.7249 41.8003 91.5642 41.4962C92.4036 41.1922 93.065 40.7752 93.5487 40.2454C94.0324 39.7156 94.3349 39.1375 94.4562 38.5109C94.5793 37.8752 94.5032 37.32 94.2278 36.8455C93.9526 36.371 93.4238 35.9725 92.6414 35.65C92.1408 35.4381 91.0065 35.1087 89.2384 34.6618C87.4702 34.2149 86.2527 33.7934 85.5858 33.3972C84.7198 32.8904 84.1232 32.2615 83.7956 31.5106C83.4682 30.7597 83.3947 29.9189 83.5749 28.9883C83.7731 27.9655 84.2474 27.0097 84.9982 26.1204C85.7487 25.2313 86.7242 24.5564 87.9244 24.0957C89.1246 23.635 90.4041 23.4047 91.763 23.4047C93.2596 23.4047 94.5325 23.6466 95.582 24.1303C96.6314 24.614 97.3726 25.3258 97.8058 26.2657C98.239 27.2054 98.3634 28.2695 98.1791 29.4582L95.5798 29.6517C95.6902 28.371 95.4116 27.4034 94.7442 26.7494C94.0766 26.0951 92.9671 25.768 91.4153 25.768C89.7994 25.768 88.5644 26.0652 87.7101 26.6594C86.8559 27.2539 86.3476 27.9702 86.1851 28.8086C86.0442 29.5365 86.1898 30.1354 86.6222 30.6053C87.0453 31.0753 88.2949 31.5567 90.3708 32.0496C92.4468 32.5426 93.8532 32.9733 94.5898 33.3419C95.6596 33.8855 96.3939 34.5743 96.7924 35.4081C97.191 36.242 97.2851 37.2025 97.0745 38.2898C96.8658 39.3678 96.3614 40.3837 95.5614 41.3373C94.7615 42.2909 93.7343 43.0327 92.4793 43.5625C91.2244 44.0923 89.8762 44.3572 88.4348 44.3572C86.6076 44.3572 85.1284 44.09 83.9968 43.5555C82.8654 43.0211 82.0525 42.2172 81.5581 41.1438C81.0635 40.0704 80.929 38.8564 81.1548 37.502ZM109.492 39.2849L111.992 39.6028C111.297 41.1046 110.323 42.2702 109.07 43.0995C107.817 43.9287 106.341 44.3434 104.642 44.3434C102.503 44.3434 100.935 43.6822 99.9376 42.36C98.9404 41.0378 98.6729 39.1835 99.1351 36.7971C99.6133 34.3278 100.618 32.4113 102.149 31.0476C103.68 29.684 105.456 29.0021 107.476 29.0021C109.432 29.0021 110.9 29.6701 111.881 31.0061C112.861 32.3422 113.117 34.2218 112.648 36.6451C112.619 36.7925 112.572 37.0137 112.505 37.3085H101.598C101.377 38.9209 101.593 40.1556 102.244 41.0125C102.895 41.8694 103.831 42.2978 105.052 42.2978C105.961 42.2978 106.784 42.0583 107.519 41.5792C108.254 41.1 108.912 40.3353 109.492 39.2849ZM102.132 35.263H110.299C110.428 34.0283 110.295 33.1023 109.9 32.485C109.296 31.5267 108.365 31.0476 107.107 31.0476C105.969 31.0476 104.938 31.43 104.014 32.1947C103.09 32.9595 102.462 33.9823 102.132 35.263ZM124.502 38.6353L126.878 38.9532C126.285 40.6393 125.348 41.9592 124.066 42.9129C122.784 43.8665 121.345 44.3434 119.747 44.3434C117.745 44.3434 116.264 43.6868 115.301 42.3739C114.339 41.0609 114.095 39.1789 114.57 36.728C114.877 35.1432 115.407 33.7565 116.161 32.5679C116.914 31.3793 117.883 30.4879 119.068 29.8936C120.253 29.2993 121.474 29.0021 122.732 29.0021C124.321 29.0021 125.542 29.4052 126.395 30.2114C127.249 31.0177 127.675 32.1625 127.672 33.6459L125.19 34.0191C125.151 33.0332 124.889 32.2915 124.402 31.7939C123.915 31.2964 123.259 31.0476 122.432 31.0476C121.184 31.0476 120.082 31.4968 119.128 32.3952C118.173 33.2935 117.508 34.7148 117.131 36.6589C116.749 38.6307 116.848 40.0635 117.428 40.9572C118.008 41.851 118.904 42.2978 120.116 42.2978C121.089 42.2978 121.96 41.9984 122.727 41.3995C123.495 40.8006 124.087 39.8792 124.502 38.6353ZM137.605 44.0116L138.023 41.8556C136.563 43.5141 134.855 44.3434 132.9 44.3434C132.037 44.3434 131.263 44.1775 130.579 43.8458C129.895 43.5141 129.42 43.0972 129.155 42.595C128.889 42.0928 128.754 41.4778 128.748 40.7499C128.741 40.2616 128.841 39.4876 129.046 38.428L130.807 29.3338H133.286L131.71 37.4743C131.458 38.7735 131.339 39.6488 131.353 40.1003C131.382 40.7545 131.613 41.2682 132.046 41.6414C132.478 42.0145 133.067 42.2011 133.81 42.2011C134.554 42.2011 135.289 42.0099 136.015 41.6275C136.741 41.2452 137.303 40.7246 137.701 40.0658C138.1 39.407 138.42 38.451 138.663 37.1979L140.186 29.3338H142.665L139.822 44.0116H137.605ZM143.077 44.0116L145.92 29.3338H148.151L147.72 31.559C148.491 30.5178 149.15 29.8314 149.696 29.4997C150.242 29.168 150.805 29.0021 151.383 29.0021C152.219 29.0021 153.016 29.2693 153.776 29.8037L152.475 32.1118C151.939 31.7525 151.367 31.5728 150.761 31.5728C150.22 31.5728 149.701 31.7364 149.206 32.0635C148.711 32.3905 148.316 32.8443 148.02 33.4248C147.573 34.3093 147.248 35.2768 147.045 36.3272L145.556 44.0116H143.077ZM156.683 26.6112L157.238 23.7502H159.717L159.163 26.6112H156.683ZM153.313 44.0116L156.156 29.3338H158.635L155.792 44.0116H153.313ZM165.209 41.7865L165.141 43.984C164.415 44.1314 163.776 44.2051 163.226 44.2051C162.326 44.2051 161.656 44.0623 161.215 43.7767C160.775 43.4911 160.499 43.1156 160.387 42.6503C160.275 42.185 160.363 41.206 160.652 39.7133L162.288 31.2687H160.47L160.845 29.3338H162.663L163.367 25.6989L166.121 24.2062L165.128 29.3338H167.621L167.246 31.2687H164.753L163.091 39.8515C162.953 40.561 162.909 41.0171 162.957 41.2198C163.005 41.4225 163.116 41.5838 163.29 41.7035C163.464 41.8233 163.735 41.8832 164.102 41.8832C164.378 41.8832 164.747 41.851 165.209 41.7865ZM167.166 49.6644L167.343 47.3287C167.857 47.4761 168.315 47.5498 168.719 47.5498C169.27 47.5498 169.728 47.4577 170.095 47.2734C170.461 47.0891 170.782 46.8311 171.057 46.4994C171.262 46.2506 171.634 45.6333 172.173 44.6474C172.246 44.5092 172.359 44.3065 172.512 44.0393L169.809 29.3338H172.481L173.879 37.8337C174.065 38.9117 174.199 40.045 174.281 41.2336C174.786 40.0911 175.342 38.9762 175.948 37.889L180.731 29.3338H183.21L174.755 44.2604C173.846 45.8729 173.167 46.9831 172.719 47.5913C172.119 48.4113 171.498 49.0125 170.854 49.3949C170.211 49.7773 169.495 49.9685 168.705 49.9685C168.228 49.9685 167.715 49.8671 167.166 49.6644ZM189.442 37.502L192.006 37.2808C191.929 38.2944 192.045 39.1259 192.356 39.7755C192.666 40.4251 193.241 40.9503 194.082 41.3511C194.922 41.7519 195.916 41.9523 197.064 41.9523C198.083 41.9523 199.012 41.8003 199.852 41.4962C200.691 41.1922 201.353 40.7752 201.836 40.2454C202.32 39.7156 202.623 39.1375 202.744 38.5109C202.867 37.8752 202.791 37.32 202.516 36.8455C202.24 36.371 201.711 35.9725 200.929 35.65C200.428 35.4381 199.294 35.1087 197.526 34.6618C195.758 34.2149 194.54 33.7934 193.873 33.3972C193.007 32.8904 192.411 32.2615 192.083 31.5106C191.756 30.7597 191.682 29.9189 191.863 28.9883C192.061 27.9655 192.535 27.0097 193.286 26.1204C194.036 25.2313 195.012 24.5564 196.212 24.0957C197.412 23.635 198.692 23.4047 200.051 23.4047C201.547 23.4047 202.82 23.6466 203.87 24.1303C204.919 24.614 205.66 25.3258 206.093 26.2657C206.527 27.2054 206.651 28.2695 206.467 29.4582L203.867 29.6517C203.978 28.371 203.699 27.4034 203.032 26.7494C202.364 26.0951 201.255 25.768 199.703 25.768C198.087 25.768 196.852 26.0652 195.998 26.6594C195.143 27.2539 194.635 27.9702 194.473 28.8086C194.332 29.5365 194.477 30.1354 194.91 30.6053C195.333 31.0753 196.583 31.5567 198.659 32.0496C200.734 32.5426 202.141 32.9733 202.877 33.3419C203.947 33.8855 204.681 34.5743 205.08 35.4081C205.479 36.242 205.573 37.2025 205.362 38.2898C205.153 39.3678 204.649 40.3837 203.849 41.3373C203.049 42.2909 202.022 43.0327 200.767 43.5625C199.512 44.0923 198.164 44.3572 196.722 44.3572C194.895 44.3572 193.416 44.09 192.285 43.5555C191.153 43.0211 190.34 42.2172 189.846 41.1438C189.351 40.0704 189.217 38.8564 189.442 37.502ZM207.35 36.6727C207.877 33.9546 209.02 31.9414 210.779 30.633C212.247 29.5457 213.885 29.0021 215.694 29.0021C217.706 29.0021 219.22 29.6632 220.24 30.9854C221.262 32.3076 221.545 34.1343 221.093 36.4654C220.728 38.3543 220.159 39.84 219.383 40.9227C218.609 42.0053 217.625 42.8461 216.43 43.445C215.234 44.0439 213.999 44.3434 212.723 44.3434C210.676 44.3434 209.149 43.6846 208.141 42.367C207.134 41.0494 206.87 39.1513 207.35 36.6727ZM209.898 36.6727C209.534 38.5524 209.67 39.9598 210.306 40.895C210.942 41.8302 211.88 42.2978 213.12 42.2978C214.349 42.2978 215.465 41.8279 216.464 40.8881C217.463 39.9483 218.149 38.5155 218.521 36.5898C218.874 34.7747 218.728 33.3995 218.089 32.4643C217.448 31.529 216.517 31.0614 215.297 31.0614C214.056 31.0614 212.938 31.5267 211.94 32.4573C210.943 33.3879 210.262 34.7931 209.898 36.6727Z" fill="#7D7D7D"/>
<path fill-rule="evenodd" clip-rule="evenodd" d="M221.882 44.012L225.806 23.75H228.284L224.361 44.012H221.882Z" fill="#7D7D7D"/>
<path fill-rule="evenodd" clip-rule="evenodd" d="M237.188 44.0116L237.605 41.8556C236.145 43.5141 234.438 44.3433 232.482 44.3433C231.618 44.3433 230.846 44.1775 230.162 43.8458C229.478 43.5141 229.003 43.0971 228.738 42.595C228.473 42.0928 228.336 41.4778 228.329 40.7499C228.323 40.2616 228.423 39.4876 228.629 38.428L230.391 29.3338H232.869L231.293 37.4743C231.041 38.7735 230.921 39.6488 230.936 40.1003C230.964 40.7545 231.195 41.2682 231.629 41.6414C232.061 42.0145 232.649 42.2011 233.393 42.2011C234.137 42.2011 234.87 42.0099 235.597 41.6275C236.322 41.2451 236.885 40.7245 237.284 40.0657C237.682 39.407 238.003 38.451 238.247 37.1979L239.769 29.3338H242.247L239.406 44.0116H237.188ZM248.532 41.7865L248.463 43.984C247.736 44.1314 247.099 44.2051 246.547 44.2051C245.647 44.2051 244.978 44.0623 244.537 43.7767C244.097 43.491 243.821 43.1156 243.708 42.6503C243.597 42.185 243.684 41.206 243.975 39.7133L245.611 31.2687H243.791L244.167 29.3338H245.985L246.689 25.6989L249.443 24.2062L248.45 29.3338H250.944L250.567 31.2687H248.074L246.413 39.8515C246.276 40.561 246.231 41.0171 246.278 41.2198C246.327 41.4225 246.438 41.5838 246.612 41.7035C246.787 41.8233 247.056 41.8832 247.424 41.8832C247.7 41.8832 248.068 41.851 248.532 41.7865ZM254.643 26.6112L255.197 23.7502H257.675L257.121 26.6112H254.643ZM251.273 44.0116L254.115 29.3338H256.595L253.751 44.0116H251.273ZM257.589 36.6727C258.115 33.9546 259.259 31.9413 261.017 30.633C262.486 29.5457 264.126 29.0021 265.933 29.0021C267.945 29.0021 269.461 29.6632 270.481 30.9854C271.501 32.3076 271.785 34.1343 271.334 36.4654C270.967 38.3543 270.398 39.84 269.624 40.9227C268.85 42.0053 267.864 42.8461 266.669 43.445C265.473 44.0439 264.24 44.3433 262.963 44.3433C260.914 44.3433 259.388 43.6845 258.381 42.3669C257.373 41.0494 257.11 39.1513 257.589 36.6727ZM260.138 36.6727C259.773 38.5524 259.909 39.9598 260.545 40.895C261.182 41.8302 262.118 42.2978 263.359 42.2978C264.588 42.2978 265.704 41.8279 266.703 40.8881C267.701 39.9483 268.388 38.5155 268.762 36.5898C269.113 34.7747 268.969 33.3995 268.328 32.4642C267.686 31.529 266.756 31.0614 265.535 31.0614C264.295 31.0614 263.177 31.5267 262.18 32.4573C261.182 33.3879 260.502 34.7931 260.138 36.6727ZM272.108 44.0116L274.952 29.3338H277.182L276.778 31.4208C278.166 29.8083 279.875 29.0021 281.902 29.0021C282.785 29.0021 283.563 29.1611 284.241 29.4789C284.919 29.7968 285.391 30.2137 285.659 30.7297C285.926 31.2457 286.065 31.8584 286.073 32.5679C286.076 33.0286 285.966 33.8348 285.742 34.9866L283.995 44.0116H281.517L283.244 35.0833C283.441 34.0698 283.493 33.3119 283.396 32.8098C283.3 32.3076 283.037 31.9068 282.603 31.6074C282.169 31.3079 281.624 31.1582 280.961 31.1582C279.907 31.1582 278.929 31.4945 278.034 32.1671C277.135 32.8397 276.505 34.1159 276.141 35.9955L274.589 44.0116H272.108ZM287.051 39.6304L289.578 39.2434C289.525 40.2293 289.762 40.9848 290.29 41.51C290.816 42.0352 291.644 42.2978 292.775 42.2978C293.912 42.2978 294.802 42.0652 295.443 41.5999C296.085 41.1346 296.465 40.5886 296.587 39.9621C296.696 39.4 296.538 38.9578 296.115 38.6353C295.818 38.4142 295.026 38.1331 293.743 37.7922C292.014 37.3315 290.831 36.933 290.194 36.5967C289.557 36.2604 289.114 35.7951 288.866 35.2008C288.62 34.6065 288.565 33.95 288.703 33.2313C288.832 32.5771 289.097 31.9713 289.503 31.4139C289.909 30.8564 290.406 30.3934 290.991 30.0248C291.432 29.7392 292.005 29.4974 292.708 29.2992C293.414 29.1012 294.145 29.0021 294.909 29.0021C296.057 29.0021 297.032 29.168 297.836 29.4997C298.638 29.8314 299.192 30.2805 299.495 30.8472C299.799 31.4139 299.936 32.1717 299.908 33.1207L297.421 33.4524C297.458 32.6969 297.252 32.1072 296.805 31.6834C296.361 31.2595 295.655 31.0476 294.691 31.0476C293.553 31.0476 292.704 31.2365 292.144 31.6143C291.584 31.992 291.254 32.4343 291.156 32.9411C291.094 33.2636 291.139 33.5538 291.291 33.8118C291.44 34.079 291.716 34.3001 292.114 34.4752C292.343 34.5673 293.031 34.7792 294.18 35.111C295.843 35.5809 296.991 35.9656 297.627 36.265C298.262 36.5645 298.721 36.9998 299.006 37.5711C299.29 38.1423 299.35 38.8518 299.185 39.6995C299.025 40.5288 298.634 41.3096 298.009 42.0421C297.385 42.7747 296.579 43.3413 295.593 43.7421C294.607 44.1429 293.538 44.3433 292.392 44.3433C290.491 44.3433 289.118 43.9471 288.276 43.1547C287.433 42.3623 287.025 41.1876 287.051 39.6304Z" fill="#7D7D7D"/>
</svg>
